# xmcd
#
# Track frame offsets: 
#        150
#        14934
#        29158
#        48140
#        71275
#        92864
#        111058
#        126108
#        139620
#        152845
#        168395
#        184817
#        205209
#        221226
#        236535
#        250055
#        267179
#        286426
#
# Disc length: 3975 seconds
#
# Revision: 0
# Processed by: cddbd v1.5.2PL0 Copyright (c) Steve Scherf et al.
# Submitted via: ExactAudioCopyFreeDBPlugin 1.0
#
DISCID=0e0f8512
DTITLE=John Denver - John Denver 精選
DYEAR=2001
DGENRE=Country
TTITLE0=Take me home country roads
TTITLE1=Annie's song
TTITLE2=Rocky mountain high
TTITLE3=Sunshine on my shoulders
TTITLE4=Eagles and horses
TTITLE5=Windsong
TTITLE6=For you
TTITLE7=The eagle and the hawk
TTITLE8=The flower that shattered the stone
TTITLE9=Leaving on a jet plane
TTITLE10=Fly away
TTITLE11=Back home again
TTITLE12=Two different directions
TTITLE13=Calypso
TTITLE14=Whispering jesse
TTITLE15=I want to live
TTITLE16=Potter's wheel
TTITLE17=On the road
EXTD=
EXTT0=
EXTT1=
EXTT2=
EXTT3=
EXTT4=
EXTT5=
EXTT6=
EXTT7=
EXTT8=
EXTT9=
EXTT10=
EXTT11=
EXTT12=
EXTT13=
EXTT14=
EXTT15=
EXTT16=
EXTT17=
PLAYORDER=
